<svg height="512pt" viewBox="0 0 512 512" width="512pt" xmlns="http://www.w3.org/2000/svg"><path d="m429.636719 81.746094c-46.425781-46.265625-108.074219-71.746094-173.636719-71.746094-65.710938 0-127.484375 25.589844-173.949219 72.050781-46.460937 46.464844-72.050781 108.238281-72.050781 173.949219h44c0-111.382812 90.617188-202 202-202 55.535156 0 105.90625 22.53125 142.457031 58.925781l-19.207031 19.210938h68.75v-68.75zm0 0" fill="#d8ec84"/><path d="m82.363281 430.253906c46.425781 46.265625 108.074219 71.746094 173.636719 71.746094 65.710938 0 127.484375-25.589844 173.949219-72.050781 46.460937-46.464844 72.050781-108.238281 72.050781-173.949219h-44c0 111.382812-90.617188 202-202 202-55.535156 0-105.90625-22.53125-142.457031-58.925781l19.207031-19.210938h-68.75v68.75zm0 0" fill="#d8ec84"/><path d="m236 175.035156v121.882813h-64v-121.882813h-32l64-64 64 64zm0 0" fill="#f6838d"/><path d="m236 306.917969h-64c-5.523438 0-10-4.476563-10-10v-111.882813h-22c-4.046875 0-7.691406-2.4375-9.238281-6.171875-1.546875-3.738281-.691407-8.039062 2.167969-10.898437l64-64c3.90625-3.90625 10.234374-3.90625 14.140624 0l64 64c2.859376 2.859375 3.714844 7.160156 2.167969 10.898437-1.546875 3.734375-5.191406 6.171875-9.238281 6.171875h-22v111.878906c0 5.523438-4.476562 10.003907-10 10.003907zm-54-20h44v-111.882813c0-5.523437 4.476562-10 10-10h7.855469l-39.855469-39.859375-39.855469 39.859375h7.855469c5.523438 0 10 4.476563 10 10zm0 0"/><path d="m276 336.964844v-121.921875h64v121.921875h32l-64 64-64-64zm0 0" fill="#b0e7f8"/><path d="m308 410.964844c-2.558594 0-5.117188-.976563-7.070312-2.929688l-64-64c-2.859376-2.859375-3.714844-7.160156-2.167969-10.898437 1.546875-3.734375 5.191406-6.171875 9.238281-6.171875h22v-111.921875c0-5.523438 4.476562-10 10-10h64c5.523438 0 10 4.476562 10 10v111.921875h22c4.046875 0 7.691406 2.4375 9.238281 6.171875 1.546875 3.738281.691407 8.039062-2.167969 10.898437l-64 64c-1.953124 1.953125-4.511718 2.929688-7.070312 2.929688zm-39.855469-64 39.855469 39.859375 39.855469-39.859375h-7.855469c-5.523438 0-10-4.476563-10-10v-111.921875h-44v111.921875c0 5.523437-4.476562 10-10 10zm0 0"/><path d="m54 266h-44c-5.523438 0-10-4.476562-10-10 0-52.285156 15.558594-102.453125 44.996094-145.078125 3.140625-4.546875 9.367187-5.683594 13.910156-2.546875s5.6875 9.363281 2.546875 13.910156c-25.238281 36.546875-39.402344 79.128906-41.246094 123.714844h24.023438c5.242187-112.269531 98.226562-202 211.769531-202 56.367188 0 109.464844 21.960938 149.511719 61.839844 1.882812 1.875 2.941406 4.421875 2.945312 7.074218.003907 2.65625-1.050781 5.207032-2.929687 7.082032l-2.136719 2.140625h34.609375v-34.609375l-1.292969 1.292968c-3.898437 3.898438-10.222656 3.90625-14.128906.011719-44.539063-44.386719-103.699219-68.832031-166.578125-68.832031-48.207031 0-94.445312 14.335938-133.714844 41.453125-4.546875 3.140625-10.773437 2-13.910156-2.546875-3.140625-4.542969-2-10.773438 2.546875-13.910156 42.625-29.4375 92.792969-44.996094 145.078125-44.996094 64.871094 0 126.09375 23.984375 173.488281 67.753906l11.441407-11.441406c2.859374-2.859375 7.160156-3.714844 10.894531-2.167969 3.738281 1.550781 6.175781 5.195313 6.175781 9.242188v68.75c0 5.519531-4.480469 10-10 10h-68.75c-4.046875 0-7.691406-2.4375-9.238281-6.175781-1.546875-3.734376-.691407-8.035157 2.167969-10.898438l11.9375-11.941406c-35.304688-31.75-80.421876-49.121094-128.117188-49.121094-105.867188 0-192 86.132812-192 192 0 5.523438-4.476562 10-10 10zm0 0"/><path d="m256 512c-64.871094 0-126.09375-23.984375-173.488281-67.753906l-11.441407 11.441406c-2.859374 2.859375-7.160156 3.714844-10.894531 2.167969-3.738281-1.550781-6.175781-5.195313-6.175781-9.242188v-68.75c0-5.519531 4.476562-10 10-10h68.75c4.046875 0 7.691406 2.4375 9.238281 6.175781 1.546875 3.734376.691407 8.035157-2.167969 10.898438l-11.941406 11.941406c35.308594 31.75 80.429688 49.121094 128.121094 49.121094 105.867188 0 192-86.132812 192-192 0-5.523438 4.476562-10 10-10h44c5.523438 0 10 4.476562 10 10 0 68.378906-26.628906 132.667969-74.980469 181.019531-48.351562 48.351563-112.636719 74.980469-181.019531 74.980469zm-173.636719-91.746094c2.554688 0 5.105469.96875 7.058594 2.914063 44.539063 44.386719 103.699219 68.832031 166.578125 68.832031 63.039062 0 122.304688-24.546875 166.878906-69.121094 42.210938-42.214844 66.460938-97.59375 68.914063-156.878906h-24.023438c-5.242187 112.269531-98.226562 202-211.769531 202-56.363281 0-109.464844-21.960938-149.515625-61.839844-1.878906-1.875-2.9375-4.421875-2.941406-7.074218-.003907-2.65625 1.050781-5.207032 2.929687-7.082032l2.136719-2.136718h-34.609375v34.605468l1.292969-1.289062c1.949219-1.953125 4.511719-2.929688 7.070312-2.929688zm0 0"/><path d="m82.050781 92.050781c-2.628906 0-5.210937-1.070312-7.070312-2.929687s-2.929688-4.441406-2.929688-7.070313c0-2.628906 1.070313-5.210937 2.929688-7.070312s4.441406-2.929688 7.070312-2.929688c2.628907 0 5.210938 1.070313 7.070313 2.929688s2.929687 4.441406 2.929687 7.070312c0 2.640625-1.070312 5.210938-2.929687 7.070313s-4.441406 2.929687-7.070313 2.929687zm0 0"/></svg>